<svg id="icons" xmlns="http://www.w3.org/2000/svg" viewBox="0 0 336.52 216.33"><defs></defs><path fill="#262626" d="M298.33,188.6a3.5,3.5,0,0,1-.26-7c7-.52,10.88-1.72,12.88-2.59l-1.81-4.67a3.53,3.53,0,0,1,0-2.48c2.49-6.72,2.71-15.6,2.68-19.41-22.49-12.23-76.59-14.92-77.15-14.94a3.71,3.71,0,0,1-1.39-.36l-41.45-20.59c-40.93-9.92-87.74-3.74-112.91,7.53a126.14,126.14,0,0,1-48.64,11l-1.43,3.82,1,15.14a3.49,3.49,0,0,1-1.19,2.86L25,160l2.4,11.68,26,4.85a3.5,3.5,0,1,1-1.28,6.88l-28.32-5.28a3.5,3.5,0,0,1-2.79-2.73l-3.27-16a3.48,3.48,0,0,1,1.12-3.34l3.81-3.32-.9-14.16a3.53,3.53,0,0,1,.21-1.44l2.55-6.83A3.48,3.48,0,0,1,28,128.07a118.18,118.18,0,0,0,48-10.36c26.33-11.79,75.26-18.28,117.81-7.85a3.73,3.73,0,0,1,.73.26l41.14,20.44c7.17.38,59.58,3.59,81.35,16.86a3.48,3.48,0,0,1,1.67,2.8c0,.54.65,12.87-2.61,22.8l2.38,6.18a3.5,3.5,0,0,1-.62,3.56c-1,1.1-5.19,4.77-19.3,5.83Z"/><path fill="#262626" d="M220,146.06h-.11L93.72,142a3.45,3.45,0,0,1-1.34-.31l-13.18-6a3.49,3.49,0,0,1-.48-6.1c.41-.27,10.3-6.73,31.3-10.47a3.5,3.5,0,0,1,1.23,6.89,106.6,106.6,0,0,0-22.47,6.35L94.65,135l125.48,4.07a3.5,3.5,0,0,1-.11,7Z"/><path fill="#51b848" d="M82.69,199.33a23.82,23.82,0,1,1,23.81-23.82A23.85,23.85,0,0,1,82.69,199.33Zm0-40.63A16.82,16.82,0,1,0,99.5,175.51,16.84,16.84,0,0,0,82.69,158.7Z"/><path fill="#51b848" d="M270,199.33a23.82,23.82,0,1,1,23.82-23.82A23.84,23.84,0,0,1,270,199.33Zm0-40.63a16.82,16.82,0,1,0,16.82,16.81A16.83,16.83,0,0,0,270,158.7Z"/><path fill="#262626" d="M241.36,188.6h-.05L112,186.53a3.5,3.5,0,0,1-3.45-3.55,3.54,3.54,0,0,1,3.56-3.45l129.34,2.07a3.5,3.5,0,0,1-.06,7Z"/><path fill="#262626" d="M298.33,160.19a3.45,3.45,0,0,1-1.94-.59L288,154a3.5,3.5,0,0,1,3.9-5.82l8.37,5.62a3.5,3.5,0,0,1-2,6.4Z"/><path fill="#262626" d="M43,157.78a3.51,3.51,0,0,1-3.12-1.91l-6.8-13.34a3.5,3.5,0,0,1,6.24-3.18l6.8,13.34A3.51,3.51,0,0,1,43,157.78Z"/></svg>
